<svg width="20" height="16" viewBox="0 0 20 16" fill="none" xmlns="http://www.w3.org/2000/svg">
<path d="M19.8238 1.97348L13.7582 8L19.8238 14.0265C19.9335 13.7973 20 13.544 20 13.2734V2.72656C20 2.45598 19.9335 2.20266 19.8238 1.97348ZM18.2422 0.96875H1.75781C1.48723 0.96875 1.23391 1.03527 1.00473 1.14492L8.75719 8.85832C9.44266 9.54379 10.5573 9.54379 11.2428 8.85832L18.9953 1.14492C18.7661 1.03527 18.5128 0.96875 18.2422 0.96875ZM0.176172 1.97348C0.0665234 2.20266 0 2.45598 0 2.72656V13.2734C0 13.544 0.0665234 13.7974 0.176172 14.0265L6.24176 8L0.176172 1.97348Z" fill="white"/>
<path d="M12.9298 8.82861L12.0715 9.68693C10.9294 10.8291 9.0709 10.8291 7.92875 9.68693L7.07047 8.82861L1.00488 14.8551C1.23406 14.9648 1.48738 15.0313 1.75797 15.0313H18.2423C18.5129 15.0313 18.7663 14.9648 18.9954 14.8551L12.9298 8.82861Z" fill="white"/>
</svg>
