<svg width="20" height="20" viewBox="0 0 20 20" fill="none" xmlns="http://www.w3.org/2000/svg">
<path d="M19.8238 3.97348L13.7582 10L19.8238 16.0265C19.9335 15.7973 20 15.544 20 15.2734V4.72656C20 4.45598 19.9335 4.20266 19.8238 3.97348ZM18.2422 2.96875H1.75781C1.48723 2.96875 1.23391 3.03527 1.00473 3.14492L8.75719 10.8583C9.44266 11.5438 10.5573 11.5438 11.2428 10.8583L18.9953 3.14492C18.7661 3.03527 18.5128 2.96875 18.2422 2.96875ZM0.176172 3.97348C0.0665234 4.20266 0 4.45598 0 4.72656V15.2734C0 15.544 0.0665234 15.7974 0.176172 16.0265L6.24176 10L0.176172 3.97348Z" fill="#4169E1"/>
<path d="M12.9298 10.8286L12.0715 11.6869C10.9294 12.829 9.0709 12.829 7.92875 11.6869L7.07047 10.8286L1.00488 16.8551C1.23406 16.9647 1.48738 17.0312 1.75797 17.0312H18.2423C18.5129 17.0312 18.7663 16.9647 18.9954 16.8551L12.9298 10.8286Z" fill="#4169E1"/>
</svg>
