<svg width="30" height="30" viewBox="0 0 30 30" fill="none" xmlns="http://www.w3.org/2000/svg">
<g clip-path="url(#clip0_178_5)">
<path fill-rule="evenodd" clip-rule="evenodd" d="M16.2264 2.81251C15.5791 2.81251 15.0545 2.28786 15.0545 1.64063C15.0545 0.993408 15.5791 0.468759 16.2264 0.468759C19.6312 0.468759 23.0362 1.76778 25.6342 4.36577C26.9034 5.63497 27.8647 7.1055 28.5172 8.68085C29.1862 10.2954 29.5308 12.0259 29.5312 13.7736C29.5312 14.4209 29.0066 14.9455 28.3594 14.9455C27.7121 14.9455 27.1875 14.4209 27.1875 13.7736C27.1875 12.3373 26.9105 10.9062 26.3566 9.56896C25.8251 8.28563 25.0321 7.07778 23.9772 6.02292C21.8369 3.88267 19.0317 2.81251 16.2264 2.81251ZM12.4119 17.5881C11.1214 16.2999 9.97757 14.874 9.00526 13.3366C8.65024 12.7751 8.65399 12.1005 9.01499 11.543L10.4024 9.40085C10.6984 8.94358 10.7549 8.42186 10.5636 7.91198L8.17698 1.5511C7.80321 0.554951 6.62038 0.160791 5.72372 0.733662L2.39413 2.86102C0.874619 3.83192 0.16915 5.5772 0.587744 7.3312C1.87604 12.7298 4.68597 17.5881 8.56962 21.4304C12.4119 25.3141 17.2702 28.124 22.6689 29.4123C24.4228 29.8308 26.1681 29.1254 27.139 27.6059L29.2663 24.2763C29.8393 23.3796 29.4451 22.1967 28.4489 21.823L22.0881 19.4364C21.5781 19.245 21.0565 19.3015 20.5992 19.5975L18.457 20.985C17.8996 21.346 17.225 21.3498 16.6635 20.9947C15.126 20.0224 13.7001 18.8786 12.4119 17.5881ZM16.2264 12.3079C16.4246 12.3079 16.6175 12.3442 16.793 12.4169C16.9577 12.4851 17.1175 12.5917 17.2629 12.7371C17.4084 12.8825 17.515 13.0424 17.5832 13.2071C17.6558 13.3825 17.6921 13.5754 17.6921 13.7736C17.6921 14.4209 18.2168 14.9455 18.864 14.9455C19.5112 14.9455 20.0359 14.4209 20.0359 13.7736C20.0359 13.2841 19.9385 12.7892 19.7438 12.319C19.5546 11.8623 19.2798 11.4397 18.92 11.08C18.5603 10.7202 18.1378 10.4454 17.681 10.2562C17.2108 10.0615 16.7159 9.96411 16.2264 9.96411C15.5791 9.96411 15.0545 10.4888 15.0545 11.136C15.0545 11.7832 15.5792 12.3079 16.2264 12.3079ZM16.2264 7.55567C17.0364 7.55567 17.8483 7.71382 18.612 8.03017C19.336 8.33005 20.0198 8.77981 20.62 9.38005C21.2202 9.98022 21.67 10.6641 21.9699 11.3881C22.2831 12.1444 22.4443 12.955 22.4444 13.7736C22.4444 14.4183 22.967 14.9409 23.6117 14.9409C24.2563 14.9409 24.779 14.4184 24.779 13.7736C24.779 12.6578 24.5628 11.5437 24.1305 10.5C23.7097 9.48394 23.0916 8.53741 22.2772 7.72296C21.4627 6.90845 20.5162 6.2904 19.5001 5.86958C18.4564 5.43728 17.3422 5.22112 16.2264 5.22112C15.5818 5.22112 15.0591 5.74378 15.0591 6.38843C15.0591 7.03308 15.5817 7.55567 16.2264 7.55567Z" fill="#4169E1"/>
</g>
<defs>
<clipPath id="clip0_178_5">
<rect width="30" height="30" fill="white"/>
</clipPath>
</defs>
</svg>
