<svg width="68" height="68" viewBox="0 0 68 68" fill="none" xmlns="http://www.w3.org/2000/svg">
<path d="M27.3596 58.1271L17.9487 36.521L12.0562 39.0876L21.467 60.6937L27.3596 58.1271Z" fill="white" stroke="white" stroke-width="2" stroke-linejoin="round"/>
<path d="M17.9487 34.9149C22.1555 25.4658 24.6094 20.0263 25.3105 18.5967C26.362 16.4522 28.5077 16.2258 30.0529 19.7733C31.598 23.3207 27.2984 27.6275 28.4754 30.3299C28.4791 30.3474 35.1176 27.4572 48.3911 21.6592C50.018 20.9485 51.913 21.6913 52.6237 23.3183L52.625 23.3213C53.3348 24.9508 52.5892 26.8471 50.9598 27.5568L43.0937 30.9829C45.3171 39.3301 46.5163 43.8722 46.6913 44.6097C46.9539 45.7157 46.806 48.0508 43.9884 49.2781C42.1099 50.0962 37.2217 52.2254 27.3596 56.521L17.9487 34.9149Z" stroke="white" stroke-width="2" stroke-linejoin="round"/>
</svg>
