<svg width="30" height="30" viewBox="0 0 30 30" fill="none" xmlns="http://www.w3.org/2000/svg">
<path d="M27.1032 8.54058C26.7939 8.37019 26.4434 8.28905 26.0907 8.30621H11.822C12.0253 9.18895 12.0079 10.1082 11.7714 10.9826C11.5349 11.8571 11.0866 12.6597 10.4661 13.3197C9.84552 13.9796 9.07191 14.4764 8.21367 14.7662C7.35542 15.056 6.43898 15.1299 5.54541 14.9812C5.22599 14.9294 4.91213 14.8478 4.60791 14.7375V23.7281C4.60791 24.242 4.81172 24.7349 5.17465 25.0987C5.53757 25.4625 6.02997 25.6675 6.54385 25.6687H26.1892C26.703 25.6675 27.1954 25.4625 27.5584 25.0987C27.9213 24.7349 28.1251 24.242 28.1251 23.7281V19.5093C27.6545 19.5075 21.0001 19.5093 21.0001 19.5093C20.6626 19.5045 20.33 19.4285 20.0239 19.2862C19.7178 19.144 19.4453 18.9387 19.224 18.6838C19.0028 18.4289 18.8378 18.1302 18.74 17.8072C18.6422 17.4842 18.6137 17.1441 18.6563 16.8093C18.6566 16.1878 18.9036 15.5918 19.3431 15.1523C19.7826 14.7128 20.3786 14.4658 21.0001 14.4656C21.0001 14.4656 27.661 14.4656 28.1251 14.4656V10.2421C28.1244 9.89266 28.029 9.54989 27.8491 9.25028C27.6691 8.95067 27.4114 8.70541 27.1032 8.54058Z" fill="white"/>
<path d="M21 15.4031C20.8153 15.4028 20.6323 15.439 20.4616 15.5096C20.2908 15.5802 20.1357 15.6838 20.0051 15.8144C19.8744 15.945 19.7709 16.1002 19.7003 16.2709C19.6297 16.4416 19.5935 16.6246 19.5938 16.8093C19.5514 17.02 19.5557 17.2373 19.6062 17.4461C19.6568 17.6549 19.7524 17.8501 19.8864 18.0181C20.0204 18.186 20.1895 18.3226 20.3819 18.4182C20.5743 18.5139 20.7852 18.5663 21 18.5718H28.125V15.4031H21ZM21.3094 17.4984C21.1732 17.4984 21.0427 17.4443 20.9464 17.348C20.8502 17.2518 20.7961 17.1212 20.7961 16.9851C20.7961 16.849 20.8502 16.7184 20.9464 16.6222C21.0427 16.5259 21.1732 16.4718 21.3094 16.4718C21.4455 16.4718 21.5761 16.5259 21.6723 16.6222C21.7686 16.7184 21.8227 16.849 21.8227 16.9851C21.8227 17.1212 21.7686 17.2518 21.6723 17.348C21.5761 17.4443 21.4455 17.4984 21.3094 17.4984ZM26.8594 7.44838L26.4984 5.84526C26.3854 5.34516 26.0786 4.91032 25.6454 4.63614C25.2122 4.36196 24.6878 4.27083 24.1875 4.38276C24.1875 4.38276 11.4937 7.32182 11.5125 7.3687H25.8797C26.2083 7.35219 26.5377 7.37899 26.8594 7.44838ZM11.0156 9.2437C10.4334 3.41713 2.09719 3.64213 1.875 9.5437C1.87599 10.1565 2.00008 10.7629 2.2399 11.3268C2.47973 11.8907 2.83041 12.4007 3.27113 12.8265C3.71184 13.2523 4.23361 13.5853 4.80546 13.8055C5.37731 14.0258 5.98759 14.129 6.60007 14.1089C7.21255 14.0888 7.81475 13.9458 8.37092 13.6885C8.9271 13.4312 9.42591 13.0648 9.83776 12.611C10.2496 12.1572 10.5661 11.6253 10.7684 11.0469C10.9708 10.4684 11.0548 9.85525 11.0156 9.2437ZM5.54062 7.49057C5.54062 7.36625 5.59001 7.24702 5.67792 7.15911C5.76583 7.07121 5.88505 7.02182 6.00937 7.02182C6.1337 7.02182 6.25292 7.07121 6.34083 7.15911C6.42874 7.24702 6.47812 7.36625 6.47812 7.49057V9.07495H7.38281C7.50713 9.07495 7.62636 9.12433 7.71427 9.21224C7.80218 9.30015 7.85156 9.41938 7.85156 9.5437C7.85156 9.66802 7.80218 9.78724 7.71427 9.87515C7.62636 9.96306 7.50713 10.0124 7.38281 10.0124H6.00937C5.94777 10.0126 5.88673 10.0006 5.82977 9.97714C5.77282 9.95365 5.72107 9.91913 5.6775 9.87557C5.63394 9.832 5.59942 9.78025 5.57593 9.7233C5.55244 9.66634 5.54044 9.60531 5.54062 9.5437V7.49057Z" fill="white"/>
</svg>
