<svg width="30" height="30" viewBox="0 0 30 30" fill="none" xmlns="http://www.w3.org/2000/svg">
<g clip-path="url(#clip0_529_662)">
<path d="M23.8761 24.3611C23.7627 24.8075 23.6156 25.2446 23.436 25.6687C22.9795 26.7483 22.3279 27.7183 21.4996 28.5529H30V24.3611H23.8761ZM6.56396 25.6687C6.38444 25.2445 6.23732 24.8074 6.12387 24.361H0V28.5529H8.50043C7.67215 27.7183 7.02059 26.7482 6.56396 25.6687ZM5.85738 22.6033C5.84839 22.437 5.84384 22.2706 5.84373 22.1041C5.84373 20.9624 6.05121 19.8516 6.4599 18.7977V10.7877H1.81816V22.6033H5.85738ZM8.52551 15.6296C9.36586 14.7893 10.3449 14.1293 11.4354 13.6681C12.5654 13.1901 13.7647 12.9478 15 12.9478C16.2353 12.9478 17.4346 13.1901 18.5646 13.6681C19.6552 14.1293 20.6342 14.7893 21.4745 15.6296C21.58 15.7351 21.6826 15.8427 21.7823 15.9525V10.7877H8.21766V15.9525C8.31769 15.8425 8.42033 15.7348 8.52551 15.6296ZM23.5402 10.7877V18.7976C23.9488 19.8515 24.1563 20.9624 24.1563 22.1041C24.1563 22.2712 24.1515 22.4376 24.1427 22.6033H28.1818V10.7877H23.5402ZM30 9.02991V5.06593L15 0.497314L0 5.06593V9.02991H30ZM19.0273 6.20476H10.9727V4.44694H19.0274V6.20476H19.0273Z" fill="url(#paint0_linear_529_662)"/>
<path d="M22.3986 22.1041C22.3986 18.018 19.0862 14.7056 15.0001 14.7056C10.914 14.7056 7.60156 18.018 7.60156 22.1041C7.60156 26.1902 10.914 29.5026 15.0001 29.5026C19.0862 29.5026 22.3986 26.1902 22.3986 22.1041ZM12.5601 25.02L13.5647 23.5775C14.1212 23.9651 14.5471 24.1286 14.993 24.1261C15.4357 24.1232 15.5974 23.8313 15.6464 23.7059C15.6922 23.5885 15.6854 23.4457 15.6276 23.3141C15.5761 23.1969 15.4616 23.0367 15.2091 22.9389C14.3985 22.6247 13.8737 22.4025 13.421 21.9667C12.8922 21.4576 12.6552 20.7049 12.8022 20.0023C12.9508 19.2933 13.4486 18.7017 14.1198 18.4201V17.2535H15.8776V18.3578C16.4185 18.5272 16.8908 18.8458 17.2353 19.1902L15.9925 20.4333C15.7727 20.2136 15.2821 19.8806 14.8365 20.0266C14.657 20.0854 14.548 20.2421 14.5228 20.3628C14.5039 20.4529 14.5326 20.5969 14.6401 20.7005C14.8482 20.9008 15.1827 21.0435 15.8444 21.3C16.4801 21.5464 16.9745 22.0104 17.2367 22.6068C17.4812 23.1628 17.4983 23.7967 17.2837 24.3459C17.0251 25.0076 16.5169 25.495 15.8778 25.7289V26.9548H14.1199V25.7747C13.6116 25.6447 13.1015 25.397 12.5601 25.02Z" fill="url(#paint1_linear_529_662)"/>
<path d="M22 22C22 25.866 18.866 29 15 29C11.134 29 8 25.866 8 22C8 18.134 11.134 15 15 15C18.866 15 22 18.134 22 22Z" fill="url(#paint2_linear_529_662)"/>
<path d="M15.732 23.23H13.73V24.168H17.02V25.26H13.73V26.8H12.12V25.26H11V24.168H12.12V23.23H11V21.788H12.12V17H15.732C16.6187 17 17.37 17.308 17.986 17.924C18.602 18.5213 18.91 19.2633 18.91 20.15C18.91 21.018 18.602 21.7507 17.986 22.348C17.37 22.936 16.6187 23.23 15.732 23.23ZM15.732 18.512H13.73V21.788H15.732C16.18 21.788 16.5487 21.6293 16.838 21.312C17.146 20.9947 17.3 20.6073 17.3 20.15C17.3 19.6927 17.146 19.3053 16.838 18.988C16.5487 18.6707 16.18 18.512 15.732 18.512Z" fill="white"/>
</g>
<defs>
<linearGradient id="paint0_linear_529_662" x1="0" y1="0.497314" x2="36.4689" y2="2.40225" gradientUnits="userSpaceOnUse">
<stop stop-color="#4169E1"/>
<stop offset="1" stop-color="#1B3667"/>
</linearGradient>
<linearGradient id="paint1_linear_529_662" x1="7.60156" y1="14.7056" x2="25.5954" y2="15.5845" gradientUnits="userSpaceOnUse">
<stop stop-color="#4169E1"/>
<stop offset="1" stop-color="#1B3667"/>
</linearGradient>
<linearGradient id="paint2_linear_529_662" x1="8" y1="15" x2="25.0246" y2="15.8316" gradientUnits="userSpaceOnUse">
<stop stop-color="#4169E1"/>
<stop offset="1" stop-color="#1B3667"/>
</linearGradient>
<clipPath id="clip0_529_662">
<rect width="30" height="30" fill="white"/>
</clipPath>
</defs>
</svg>
