<svg width="30" height="30" viewBox="0 0 30 30" fill="none" xmlns="http://www.w3.org/2000/svg">
<path d="M28.1836 19.4531C28.1836 18.4863 27.3926 17.6953 26.4258 17.6953C27.3926 17.6953 28.1836 16.9043 28.1836 15.9375C28.1836 14.9707 27.3926 14.1797 26.4258 14.1797H19.2188C20.291 10.9628 20.2734 9.9375 20.2734 7.96875C20.2734 6.50619 19.0743 5.33203 17.6367 5.33203H17.1094C16.7754 5.33203 16.3535 5.59576 16.2656 6C15.396 9.38561 14.0364 13.2705 10.6055 14.0575V26.7759L13.6464 27.7851C14.5429 28.0839 15.4746 28.2421 16.4238 28.2421H24.668C25.6388 28.2422 26.4258 27.4551 26.4258 26.4844C26.4258 25.5135 25.6388 24.7266 24.668 24.7266H26.4258C27.3926 24.7266 28.1836 23.9355 28.1836 22.9688C28.1836 22.002 27.3926 21.2109 26.4258 21.2109C27.3926 21.2109 28.1836 20.4199 28.1836 19.4531ZM6.21094 12.4219H2.69531C2.20951 12.4219 1.81641 12.815 1.81641 13.3008V29.1211C1.81641 29.6069 2.20951 30 2.69531 30H6.21094C7.66488 30 8.84766 28.8172 8.84766 27.3633V15.0586C8.84766 13.6046 7.66488 12.4219 6.21094 12.4219ZM6.21094 26.4844C5.72555 26.4844 5.33203 26.0909 5.33203 25.6055C5.33203 25.12 5.72555 24.7266 6.21094 24.7266C6.69633 24.7266 7.08984 25.12 7.08984 25.6055C7.08984 26.0909 6.69633 26.4844 6.21094 26.4844ZM13.9074 3.87551L12.6646 2.63268C12.3213 2.28938 11.765 2.28938 11.4217 2.63268C11.0784 2.97598 11.0784 3.53221 11.4217 3.87551L12.6646 5.11834C13.0079 5.46164 13.564 5.46164 13.9074 5.11834C14.2507 4.77504 14.2507 4.21881 13.9074 3.87551ZM23.8517 2.63268C23.5084 2.28938 22.9522 2.28938 22.6089 2.63268L21.366 3.87551C21.0227 4.21881 21.0227 4.77504 21.366 5.11834C21.7093 5.46164 22.2656 5.46164 22.6089 5.11834L23.8517 3.87551C24.195 3.53221 24.195 2.97598 23.8517 2.63268ZM17.6367 0C17.1445 0 16.7578 0.38666 16.7578 0.878906V2.69531C16.7578 3.18756 17.1445 3.57422 17.6367 3.57422C18.129 3.57422 18.5156 3.18756 18.5156 2.69531V0.878906C18.5156 0.38666 18.129 0 17.6367 0Z" fill="url(#paint0_linear_529_637)"/>
<defs>
<linearGradient id="paint0_linear_529_637" x1="1.81641" y1="0" x2="33.8974" y2="1.37736" gradientUnits="userSpaceOnUse">
<stop stop-color="#4169E1"/>
<stop offset="1" stop-color="#1B3667"/>
</linearGradient>
</defs>
</svg>
