<svg width="20" height="20" viewBox="0 0 20 20" fill="none" xmlns="http://www.w3.org/2000/svg">
<path fill-rule="evenodd" clip-rule="evenodd" d="M10.5051 1.56251C10.0736 1.56251 9.72382 1.21274 9.72382 0.781256C9.72382 0.349772 10.0736 6.30096e-06 10.5051 6.30096e-06C12.775 6.30096e-06 15.045 0.866022 16.777 2.59801C17.6231 3.44415 18.2639 4.4245 18.699 5.47473C19.145 6.55112 19.3747 7.7048 19.375 8.86993C19.375 9.30141 19.0252 9.65118 18.5937 9.65118C18.1623 9.65118 17.8125 9.30141 17.8125 8.86993C17.8125 7.91235 17.6278 6.95833 17.2586 6.0668C16.9042 5.21126 16.3756 4.40602 15.6723 3.70278C14.2455 2.27594 12.3753 1.56251 10.5051 1.56251ZM7.9621 11.4129C7.10175 10.5541 6.33921 9.60348 5.69101 8.57856C5.45433 8.20423 5.45683 7.7545 5.69749 7.38286L6.62245 5.95473C6.8198 5.64989 6.85745 5.30208 6.72988 4.96215L5.13882 0.721569C4.88964 0.0574673 4.10109 -0.205306 3.50331 0.176608L1.28359 1.59485C0.270579 2.24212 -0.199733 3.40563 0.0793292 4.57497C0.938196 8.17403 2.81148 11.4129 5.40058 13.9744C7.9621 16.5636 11.201 18.4368 14.8001 19.2957C15.9694 19.5747 17.1329 19.1044 17.7802 18.0914L19.1984 15.8717C19.5803 15.2739 19.3175 14.4853 18.6534 14.2362L14.4129 12.6451C14.0729 12.5175 13.7251 12.5552 13.4203 12.7525L11.9922 13.6775C11.6205 13.9182 11.1708 13.9207 10.7965 13.684C9.77152 13.0358 8.82089 12.2732 7.9621 11.4129ZM10.5051 7.89278C10.6372 7.89278 10.7659 7.917 10.8828 7.96544C10.9926 8.0109 11.0991 8.08196 11.1961 8.17891C11.2931 8.27587 11.3641 8.38243 11.4096 8.49223C11.458 8.60915 11.4823 8.73778 11.4823 8.86993C11.4823 9.30141 11.832 9.65118 12.2635 9.65118C12.695 9.65118 13.0448 9.30141 13.0448 8.86993C13.0448 8.54356 12.9798 8.2136 12.85 7.90016C12.7239 7.59567 12.5407 7.31399 12.3009 7.07415C12.061 6.8343 11.7794 6.6511 11.4748 6.52497C11.1614 6.39516 10.8314 6.33024 10.5051 6.33024C10.0736 6.33024 9.72382 6.68001 9.72382 7.11149C9.72382 7.54298 10.0736 7.89278 10.5051 7.89278ZM10.5051 4.72462C11.0451 4.72462 11.5864 4.83005 12.0955 5.04094C12.5782 5.24087 13.0341 5.54071 13.4342 5.94087C13.8343 6.34098 14.1342 6.79688 14.3341 7.27954C14.5429 7.78376 14.6504 8.32417 14.6504 8.86993C14.6504 9.29969 14.9988 9.64813 15.4286 9.64813C15.8584 9.64813 16.2068 9.29973 16.2068 8.86993C16.2068 8.12602 16.0627 7.38329 15.7745 6.68751C15.4939 6.01012 15.0819 5.37911 14.5389 4.83614C13.996 4.29313 13.365 3.8811 12.6876 3.60055C11.9918 3.31235 11.249 3.16825 10.5051 3.16825C10.0753 3.16825 9.72691 3.51669 9.72691 3.94645C9.72691 4.37622 10.0753 4.72462 10.5051 4.72462Z" fill="#4169E1"/>
</svg>
