<svg width="30" height="30" viewBox="0 0 30 30" fill="none" xmlns="http://www.w3.org/2000/svg">
<path d="M21.25 8.75C20.4215 8.74901 19.6272 8.41945 19.0414 7.83361C18.4556 7.24778 18.126 6.4535 18.125 5.625V1.25H7.5C6.6712 1.25 5.87634 1.57924 5.29029 2.16529C4.70424 2.75134 4.375 3.5462 4.375 4.375V25.625C4.375 26.4538 4.70424 27.2487 5.29029 27.8347C5.87634 28.4208 6.6712 28.75 7.5 28.75H20C18.8827 28.7512 17.7856 28.4528 16.8228 27.8861C15.8599 27.3193 15.0667 26.5048 14.5255 25.5273C13.9843 24.5499 13.7151 23.4452 13.7458 22.3284C13.7764 21.2115 14.1059 20.1233 14.6999 19.1771C15.294 18.2308 16.1308 17.4611 17.1233 16.948C18.1158 16.4349 19.2276 16.1973 20.3431 16.2598C21.4586 16.3223 22.537 16.6827 23.4659 17.3035C24.3949 17.9242 25.1404 18.7827 25.625 19.7894V8.75H21.25ZM8.75 6.875H15.625C15.7908 6.875 15.9497 6.94085 16.0669 7.05806C16.1842 7.17527 16.25 7.33424 16.25 7.5C16.25 7.66576 16.1842 7.82473 16.0669 7.94194C15.9497 8.05915 15.7908 8.125 15.625 8.125H8.75C8.58424 8.125 8.42527 8.05915 8.30806 7.94194C8.19085 7.82473 8.125 7.66576 8.125 7.5C8.125 7.33424 8.19085 7.17527 8.30806 7.05806C8.42527 6.94085 8.58424 6.875 8.75 6.875ZM11.875 24.375H8.75C8.58424 24.375 8.42527 24.3092 8.30806 24.1919C8.19085 24.0747 8.125 23.9158 8.125 23.75C8.125 23.5842 8.19085 23.4253 8.30806 23.3081C8.42527 23.1908 8.58424 23.125 8.75 23.125H11.875C12.0408 23.125 12.1997 23.1908 12.3169 23.3081C12.4342 23.4253 12.5 23.5842 12.5 23.75C12.5 23.9158 12.4342 24.0747 12.3169 24.1919C12.1997 24.3092 12.0408 24.375 11.875 24.375ZM8.125 20.625C8.125 20.4592 8.19085 20.3003 8.30806 20.1831C8.42527 20.0658 8.58424 20 8.75 20H11.25C11.4158 20 11.5747 20.0658 11.6919 20.1831C11.8092 20.3003 11.875 20.4592 11.875 20.625C11.875 20.7908 11.8092 20.9497 11.6919 21.0669C11.5747 21.1842 11.4158 21.25 11.25 21.25H8.75C8.58424 21.25 8.42527 21.1842 8.30806 21.0669C8.19085 20.9497 8.125 20.7908 8.125 20.625ZM12.5 18.125H8.75C8.58424 18.125 8.42527 18.0592 8.30806 17.9419C8.19085 17.8247 8.125 17.6658 8.125 17.5C8.125 17.3342 8.19085 17.1753 8.30806 17.0581C8.42527 16.9408 8.58424 16.875 8.75 16.875H12.5C12.6658 16.875 12.8247 16.9408 12.9419 17.0581C13.0592 17.1753 13.125 17.3342 13.125 17.5C13.125 17.6658 13.0592 17.8247 12.9419 17.9419C12.8247 18.0592 12.6658 18.125 12.5 18.125ZM21.25 15H8.75C8.58424 15 8.42527 14.9342 8.30806 14.8169C8.19085 14.6997 8.125 14.5408 8.125 14.375C8.125 14.2092 8.19085 14.0503 8.30806 13.9331C8.42527 13.8158 8.58424 13.75 8.75 13.75H21.25C21.4158 13.75 21.5747 13.8158 21.6919 13.9331C21.8092 14.0503 21.875 14.2092 21.875 14.375C21.875 14.5408 21.8092 14.6997 21.6919 14.8169C21.5747 14.9342 21.4158 15 21.25 15ZM21.25 11.875H10.625C10.4592 11.875 10.3003 11.8092 10.1831 11.6919C10.0658 11.5747 10 11.4158 10 11.25C10 11.0842 10.0658 10.9253 10.1831 10.8081C10.3003 10.6908 10.4592 10.625 10.625 10.625H21.25C21.4158 10.625 21.5747 10.6908 21.6919 10.8081C21.8092 10.9253 21.875 11.0842 21.875 11.25C21.875 11.4158 21.8092 11.5747 21.6919 11.6919C21.5747 11.8092 21.4158 11.875 21.25 11.875Z" fill="url(#paint0_linear_529_672)"/>
<path d="M25.2588 7.13371L19.7413 1.61621C19.6352 1.51159 19.5111 1.42691 19.375 1.36621V5.62496C19.375 6.12224 19.5726 6.59916 19.9242 6.95079C20.2758 7.30242 20.7528 7.49996 21.25 7.49996H25.5088C25.4481 7.36387 25.3634 7.23982 25.2588 7.13371ZM27.0688 27.8062L24.3038 25.0362C24.9243 23.9854 25.1401 22.7444 24.9108 21.5458C24.6816 20.3472 24.023 19.2735 23.0585 18.5259C22.094 17.7782 20.8899 17.4081 19.672 17.485C18.4541 17.5618 17.3061 18.0803 16.4432 18.9432C15.5803 19.806 15.0619 20.9541 14.985 22.172C14.9082 23.3898 15.2783 24.5939 16.0259 25.5584C16.7735 26.5229 17.8473 27.1815 19.0459 27.4108C20.2445 27.64 21.4855 27.4242 22.5363 26.8037L25.3063 29.5687C25.422 29.6844 25.5594 29.7762 25.7106 29.8389C25.8618 29.9015 26.0239 29.9337 26.1875 29.9337C26.3512 29.9337 26.5133 29.9015 26.6645 29.8389C26.8157 29.7762 26.9531 29.6844 27.0688 29.5687C27.1845 29.453 27.2763 29.3156 27.3389 29.1644C27.4016 29.0132 27.4338 28.8511 27.4338 28.6875C27.4338 28.5238 27.4016 28.3617 27.3389 28.2105C27.2763 28.0593 27.1845 27.9219 27.0688 27.8062ZM16.875 22.5C16.875 21.8819 17.0583 21.2777 17.4017 20.7638C17.7451 20.2499 18.2331 19.8494 18.8041 19.6128C19.3752 19.3763 20.0035 19.3144 20.6097 19.435C21.2159 19.5556 21.7727 19.8532 22.2097 20.2903C22.6468 20.7273 22.9444 21.2841 23.065 21.8903C23.1856 22.4965 23.1237 23.1248 22.8872 23.6958C22.6506 24.2669 22.2501 24.7549 21.7362 25.0983C21.2223 25.4417 20.6181 25.625 20 25.625C19.5897 25.625 19.1833 25.5441 18.8041 25.3871C18.425 25.23 18.0805 24.9999 17.7903 24.7097C17.5001 24.4195 17.27 24.075 17.1129 23.6958C16.9559 23.3167 16.875 22.9103 16.875 22.5Z" fill="url(#paint1_linear_529_672)"/>
<defs>
<linearGradient id="paint0_linear_529_672" x1="4.375" y1="1.25" x2="30.2407" y2="2.22635" gradientUnits="userSpaceOnUse">
<stop stop-color="#4169E1"/>
<stop offset="1" stop-color="#1B3667"/>
</linearGradient>
<linearGradient id="paint1_linear_529_672" x1="14.9751" y1="1.36621" x2="30.1547" y2="1.68959" gradientUnits="userSpaceOnUse">
<stop stop-color="#4169E1"/>
<stop offset="1" stop-color="#1B3667"/>
</linearGradient>
</defs>
</svg>
