<svg width="150" height="31" viewBox="0 0 150 31" fill="none" xmlns="http://www.w3.org/2000/svg">
<g clip-path="url(#clip0_529_259)">
<path d="M19.9375 30.8434V26.6329H0V30.8434H19.9375ZM55.8959 5.517C53.0486 5.90998 51.1042 7.08192 50.0625 9.03281C48.7709 11.3205 48.4653 13.5591 49.1459 15.7486C50.3264 19.2715 52.5764 21.089 55.8959 21.2013V26.6539H59.5834V21.2013C62.8889 21.075 65.132 19.2574 66.3125 15.7486C66.9931 13.5591 66.6875 11.3205 65.3959 9.03281C64.3542 7.08192 62.4167 5.90998 59.5834 5.517V0.106448H55.8959V5.517ZM55.8959 9.18018V17.6223C54.507 17.3135 53.5348 16.3381 52.9792 14.696C52.6042 13.4749 52.7778 12.2328 53.5 10.9697C53.9584 10.0854 54.757 9.48895 55.8959 9.18018ZM59.5834 9.18018C60.7223 9.48895 61.5278 10.0854 62 10.9697C62.7223 12.2328 62.8959 13.4749 62.5209 14.696C61.9514 16.3381 60.9723 17.3135 59.5834 17.6223V9.18018ZM39.3334 6.08542H35.5834V20.7802H43.4792C45.4653 20.5136 46.7153 19.503 47.2292 17.7486L47.2709 13.8749C46.8681 11.7837 45.5834 10.6258 43.4167 10.4012H39.3334V6.08542ZM39.2917 13.7486H42.4584C44.0139 14.8574 44.0139 16.0153 42.4584 17.2223H39.2917V13.7486ZM25.5417 9.3907H29V20.8013H32.9375V5.85384H21.9583V16.0223C21.6111 16.9206 20.9445 17.2504 19.9583 17.0118V20.7592L22.3333 20.4855C23.75 20.1346 24.625 19.3486 24.9584 18.1276C25.2778 16.9065 25.3889 16.1837 25.2917 15.9592L25.5417 9.3907ZM11.8542 0.485396C10.7153 -0.118116 9.52084 -0.153204 8.27084 0.380132C6.92362 2.19067 4.29861 8.90649 0.395832 20.5276H4.39584L5.9375 16.696H13.625L15 20.7802H19.1667C17.3472 13.9451 14.9097 7.18017 11.8542 0.485396ZM9.77084 4.82226L12.3333 12.717H7.08334L9.77084 4.82226ZM139.75 6.12753H136.042V20.6329H139.667V14.7592L145.063 20.5276H150L143.313 12.8434L149.333 6.14858H144.625L139.75 11.6012V6.12753ZM124.375 6.12753H120.667V20.6329H124.292V14.9697H129.667V20.6329H133.292V6.12753H129.583V11.3907H129.521H124.438L124.375 6.12753ZM107.667 11.5381C106.028 12.1697 105.174 13.2434 105.104 14.7592C104.701 17.9311 105.729 19.8399 108.188 20.4855C110.382 21.3978 112.368 20.9697 114.146 19.2013C115.257 20.675 116.757 21.1451 118.646 20.6118V17.4328L117.458 16.5486V9.51702C117.139 7.70648 115.875 6.45034 113.667 5.74858C112.097 5.25735 110.604 5.25735 109.188 5.74858C106.896 6.68894 105.632 8.14859 105.396 10.1275H109.229C109.34 9.51 109.674 9.18018 110.229 9.13807H112.625C113.361 9.53105 113.66 10.1697 113.521 11.0539C111.229 10.8433 109.278 11.0047 107.667 11.5381ZM109.708 14.4855H113.729V16.0855C113.368 16.7311 112.958 17.1592 112.5 17.3697C111.486 17.9451 110.556 17.9451 109.708 17.3697C108.583 16.303 108.583 15.3416 109.708 14.4855ZM92.6042 4.08541H102.271V0.106448H88.2917V20.6118H98.6042C101.215 20.1065 102.75 18.7451 103.208 16.5276L103.167 11.9802C102.861 10.1275 101.41 8.92754 98.8126 8.38017C96.882 8.1135 94.8126 7.98719 92.6042 8.00122V4.08541ZM92.4167 11.7486L97.2917 11.7276C100.195 13.496 100.195 15.2083 97.2917 16.8644H92.4167V11.7486ZM80.4584 9.51702C80.1389 7.70648 78.8751 6.45034 76.6667 5.74858C75.0973 5.25735 73.6042 5.25735 72.1876 5.74858C69.8959 6.68894 68.632 8.14859 68.3959 10.1275H72.2292C72.3403 9.51 72.6737 9.18018 73.2292 9.13807H75.6251C76.3612 9.53105 76.6598 10.1697 76.5209 11.0539C74.2292 10.8433 72.2778 11.0047 70.6667 11.5381C69.0278 12.1697 68.1737 13.2434 68.1042 14.7592C67.7014 17.9311 68.7292 19.8399 71.1876 20.4855C73.382 21.3978 75.3681 20.9697 77.1459 19.2013C78.257 20.675 79.757 21.1451 81.6459 20.6118V17.4328L80.4584 16.5486V9.51702ZM76.7292 16.0855C76.3681 16.7311 75.9584 17.1592 75.5001 17.3697C74.4862 17.9451 73.5556 17.9451 72.7084 17.3697C71.5834 16.303 71.5834 15.3416 72.7084 14.4855H76.7292V16.0855Z" fill="#F03024"/>
<path d="M129.521 11.3908H124.438L124.375 6.12759H120.667V20.6329H124.292V14.9697H129.667V20.6329H133.292V6.12759H129.584M129.521 11.3908H129.584V6.12759M129.521 11.3908V6.12759H129.584M55.8961 5.51706C53.0488 5.91005 51.1044 7.08198 50.0627 9.03287C48.771 11.3206 48.4655 13.5592 49.146 15.7487C50.3266 19.2715 52.5766 21.0891 55.8961 21.2013M59.5836 21.2013C62.8891 21.075 65.1322 19.2575 66.3127 15.7487C66.9933 13.5592 66.6877 11.3206 65.3961 9.03287C64.3544 7.08198 62.4169 5.91005 59.5836 5.51706M56.7294 9.01182C56.4377 9.05392 56.1599 9.11006 55.8961 9.18024C54.7572 9.48901 53.9585 10.0855 53.5002 10.9697C52.778 12.2329 52.6044 13.475 52.9794 14.6961C53.5349 16.3382 54.5072 17.3136 55.8961 17.6224C56.1599 17.6785 56.4377 17.7136 56.7294 17.7276M58.7711 9.01182C59.0627 9.05392 59.3336 9.11006 59.5836 9.18024C60.7224 9.48901 61.528 10.0855 62.0002 10.9697C62.7224 12.2329 62.8961 13.475 62.5211 14.6961C61.9516 16.3382 60.9724 17.3136 59.5836 17.6224C59.3336 17.6785 59.0627 17.7136 58.7711 17.7276M68.3961 10.1276H72.2294C72.3405 9.51006 72.6738 9.18024 73.2294 9.13813H75.6252C76.3613 9.53112 76.66 10.1697 76.5211 11.0539C74.2294 10.8434 72.278 11.0048 70.6669 11.5381C69.028 12.1697 68.1738 13.2434 68.1044 14.7592C67.7016 17.9312 68.7294 19.8399 71.1877 20.4856C73.3822 21.3978 75.3683 20.9698 77.1461 19.2013C78.2572 20.675 79.7572 21.1452 81.6461 20.6119V17.4329L80.4586 16.5487V9.51708C80.1391 7.70654 78.8752 6.4504 76.6669 5.74864C75.0975 5.25741 73.6044 5.25741 72.1877 5.74864C69.8961 6.689 68.6322 8.14865 68.3961 10.1276ZM88.2919 20.6119V0.106509H102.271V4.08548H92.6044V8.00128C94.8127 7.98725 96.8822 8.11356 98.8128 8.38023C101.41 8.9276 102.861 10.1276 103.167 11.9803L103.209 16.5276C102.75 18.7452 101.216 20.1066 98.6044 20.6119H88.2919ZM92.4169 11.7487V16.8645H97.2919C100.195 15.2083 100.195 13.496 97.2919 11.7276L92.4169 11.7487ZM105.396 10.1276H109.229C109.341 9.51006 109.674 9.18024 110.229 9.13813H112.625C113.361 9.53112 113.66 10.1697 113.521 11.0539C111.229 10.8434 109.278 11.0048 107.667 11.5381C106.028 12.1697 105.174 13.2434 105.104 14.7592C104.702 17.9312 105.729 19.8399 108.188 20.4856C110.382 21.3978 112.368 20.9698 114.146 19.2013C115.257 20.675 116.757 21.1452 118.646 20.6119V17.4329L117.459 16.5487V9.51708C117.139 7.70654 115.875 6.4504 113.667 5.74864C112.097 5.25741 110.604 5.25741 109.188 5.74864C106.896 6.689 105.632 8.14865 105.396 10.1276ZM113.729 14.4855H109.709C108.584 15.3417 108.584 16.3031 109.709 17.3698C110.556 17.9452 111.486 17.9452 112.5 17.3698C112.959 17.1592 113.368 16.7312 113.729 16.0855V14.4855ZM139.667 14.7592V20.6329H136.042V6.12759H139.75V11.6013L144.625 6.14864H149.334L143.313 12.8434L150 20.5277H145.063L139.667 14.7592ZM76.7294 14.4855H72.7086C71.5836 15.3417 71.5836 16.3031 72.7086 17.3698C73.5558 17.9452 74.4863 17.9452 75.5002 17.3698C75.9586 17.1592 76.3683 16.7312 76.7294 16.0855V14.4855ZM0.395996 20.5277C4.29878 8.90655 6.92378 2.19073 8.27101 0.380193C9.52101 -0.153143 10.7154 -0.118055 11.8543 0.485457C14.9099 7.18023 17.3474 13.9452 19.1668 20.7803H15.0002L13.6252 16.6961H5.93767L4.396 20.5277H0.395996ZM7.0835 12.7171L9.771 4.82232L12.3335 12.7171H7.0835ZM19.9585 17.0119V20.7592L22.3335 20.4856C23.7502 20.1347 24.6252 19.3487 24.9585 18.1276C25.278 16.9066 25.3891 16.1838 25.2919 15.9592L25.5419 9.39076H29.0002V20.8013H32.9377V5.8539H21.9585V16.0224C21.6113 16.9206 20.9446 17.2505 19.9585 17.0119ZM35.5835 6.08548H39.3335V10.4013H43.4169C45.5835 10.6259 46.8683 11.7838 47.271 13.875L47.2294 17.7487C46.7155 19.5031 45.4655 20.5136 43.4794 20.7803H35.5835V6.08548ZM39.2919 13.7487V17.2224H42.4585C44.0141 16.0154 44.0141 14.8575 42.4585 13.7487H39.2919Z" stroke="#F03024" stroke-width="0.418855" stroke-linecap="round" stroke-linejoin="round"/>
</g>
<defs>
<clipPath id="clip0_529_259">
<rect width="150" height="30.8423" fill="white"/>
</clipPath>
</defs>
</svg>
