<svg width="150" height="24" viewBox="0 0 150 24" fill="none" xmlns="http://www.w3.org/2000/svg">
<path d="M67.0702 6.96173L70.1958 4.71918H59.7285V18.154H70.1958V15.9096H62.7183V12.4806H69.1093V10.238H62.7183V6.96173H67.0702Z" fill="#21A038"/>
<path d="M51.8206 9.95117H48.1944V6.96173H53.9956L57.1232 4.71918H45.2046V18.154H51.4345C54.9249 18.154 56.9408 16.6136 56.9408 13.9315C56.9408 11.3593 55.1287 9.95117 51.8206 9.95117ZM51.322 15.9096H48.1944V12.1937H51.322C53.2253 12.1937 54.1081 12.8102 54.1081 14.0638C54.1081 15.3173 53.1574 15.9096 51.322 15.9096Z" fill="#21A038"/>
<path d="M78.6706 4.71918H72.9839V18.154H75.9737V14.3487H78.6939C82.3181 14.3487 84.5843 12.5029 84.5843 9.53395C84.5843 6.565 82.3181 4.71918 78.6706 4.71918ZM78.6027 12.1062H75.9524V6.96173H78.6027C80.5293 6.96173 81.5712 7.88557 81.5712 9.53395C81.5712 11.1823 80.5293 12.1062 78.6027 12.1062Z" fill="#21A038"/>
<path d="M40.0822 15.2502C39.2906 15.6693 38.4059 15.8891 37.4998 15.8891C34.803 15.8891 32.855 14.0191 32.855 11.4468C32.855 8.8746 34.803 7.00457 37.4998 7.00457C38.4738 6.98408 39.4264 7.29141 40.218 7.84087L42.3717 6.30238L42.2358 6.17013C40.9902 5.0917 39.312 4.54224 37.4087 4.54224C35.3482 4.54224 33.4662 5.22394 32.108 6.45511C30.748 7.73098 29.9777 9.51161 30.0223 11.3593C29.9991 13.2275 30.748 15.0304 32.108 16.3491C33.5341 17.6474 35.4374 18.3738 37.3873 18.3291C39.539 18.3291 41.419 17.6027 42.6879 16.284L40.7632 14.8982L40.0822 15.2502Z" fill="#21A038"/>
<path d="M120.544 4.74153V18.1745H123.534V12.678H129.902V18.1745H132.893V4.74153H129.902V10.2604H123.534V4.74153H120.544ZM115.401 18.1745H118.55L112.704 4.74153H109.667L103.709 18.1745H106.722L107.923 15.47H114.268L115.401 18.1745ZM108.829 13.2275L111.14 7.84087L113.315 13.2275H108.829ZM139.601 12.745H141.457L146.034 18.154H149.886L143.768 11.2047L149.115 4.71918H145.695L141.254 10.4801H139.601V4.71918H136.609V18.154H139.601V12.745ZM93.8297 9.97352V6.98408H101.647V4.74153H90.8379V18.1745H97.0698C100.558 18.1745 102.576 16.636 102.576 13.9539C102.576 11.3816 100.764 9.97352 97.4539 9.97352H93.8297ZM93.8297 15.9319V12.2161H96.9573C98.8586 12.2161 99.7434 12.8326 99.7434 14.0861C99.7434 15.3396 98.814 15.9543 96.9573 15.9543H93.8297V15.9319Z" fill="#21A038"/>
<path d="M20.665 4.63162C21.2083 5.31333 21.6623 6.06022 22.0464 6.85182L11.5791 14.3487L7.18262 11.6666V8.45737L11.5558 11.1171L20.665 4.63162Z" fill="#21A038"/>
<path d="M2.71817 11.4468C2.71817 11.2922 2.71817 11.1618 2.74145 11.0072L0.0911534 10.875C0.0911534 11.0519 0.0678711 11.2494 0.0678711 11.4245C0.0678711 14.5033 1.36004 17.2953 3.4438 19.3181L5.32385 17.4928C3.71543 15.9543 2.71817 13.8216 2.71817 11.4468Z" fill="url(#paint0_linear_529_226)"/>
<path d="M11.5558 2.87148C11.7149 2.87148 11.8507 2.87148 12.0098 2.89383L12.1456 0.321606C11.9632 0.321606 11.7595 0.299255 11.5791 0.299255C8.40686 0.299255 5.52955 1.55277 3.44385 3.57554L5.32389 5.40087C6.91097 3.84003 9.13055 2.87148 11.5558 2.87148Z" fill="url(#paint1_linear_529_226)"/>
<path d="M11.5556 20.0222C11.3965 20.0222 11.2607 20.0222 11.1016 19.9998L10.9658 22.572C11.1482 22.572 11.3519 22.5944 11.5324 22.5944C14.7046 22.5944 17.5838 21.3409 19.6676 19.3181L17.7875 17.4928C16.2005 19.076 14.0022 20.0222 11.5556 20.0222Z" fill="url(#paint2_linear_529_226)"/>
<path d="M16.54 4.36715L18.7829 2.7616C16.8116 1.22311 14.2972 0.276917 11.5557 0.276917V2.84914C13.4144 2.8715 15.1353 3.42096 16.54 4.36715Z" fill="url(#paint3_linear_529_226)"/>
<path d="M23.0668 11.4468C23.0668 10.7651 22.9989 10.1058 22.8845 9.44641L20.4146 11.227C20.4146 11.2922 20.4146 11.3816 20.4146 11.4468C20.4146 13.9762 19.2815 16.2411 17.4927 17.802L19.2815 19.7148C21.5942 17.6921 23.0668 14.7231 23.0668 11.4468Z" fill="#21A038"/>
<path d="M11.5555 20.0222C8.94983 20.0222 6.61578 18.9232 5.00737 17.1855L3.03613 18.9232C5.14318 21.1881 8.17958 22.5944 11.5555 22.5944V20.0222Z" fill="url(#paint4_linear_529_226)"/>
<path d="M5.64204 5.09171L3.85124 3.17883C1.51719 5.22395 0.0678711 8.17055 0.0678711 11.4468H2.71817C2.71817 8.9398 3.85124 6.65441 5.64204 5.09171Z" fill="url(#paint5_linear_529_226)"/>
<defs>
<linearGradient id="paint0_linear_529_226" x1="3.16118" y1="19.0053" x2="0.631586" y2="11.3542" gradientUnits="userSpaceOnUse">
<stop offset="0.1444" stop-color="#F2E913"/>
<stop offset="0.3037" stop-color="#E7E518"/>
<stop offset="0.5823" stop-color="#CADB26"/>
<stop offset="0.891" stop-color="#A3CD39"/>
</linearGradient>
<linearGradient id="paint1_linear_529_226" x1="4.19981" y1="3.28517" x2="11.0033" y2="0.572205" gradientUnits="userSpaceOnUse">
<stop offset="0.0592" stop-color="#0FA8E0"/>
<stop offset="0.5385" stop-color="#0099F9"/>
<stop offset="0.9234" stop-color="#0291EB"/>
</linearGradient>
<linearGradient id="paint2_linear_529_226" x1="10.811" y1="20.4066" x2="18.9719" y2="18.4767" gradientUnits="userSpaceOnUse">
<stop offset="0.1226" stop-color="#A3CD39"/>
<stop offset="0.2846" stop-color="#86C339"/>
<stop offset="0.8693" stop-color="#21A038"/>
</linearGradient>
<linearGradient id="paint3_linear_529_226" x1="11.0111" y1="1.91588" x2="17.7758" y2="4.09993" gradientUnits="userSpaceOnUse">
<stop offset="0.0566" stop-color="#0291EB"/>
<stop offset="0.79" stop-color="#0C8ACB"/>
</linearGradient>
<linearGradient id="paint4_linear_529_226" x1="3.71007" y1="19.3302" x2="10.9558" y2="22.1631" gradientUnits="userSpaceOnUse">
<stop offset="0.1324" stop-color="#F2E913"/>
<stop offset="0.2977" stop-color="#EBE716"/>
<stop offset="0.5306" stop-color="#D9E01F"/>
<stop offset="0.8023" stop-color="#BBD62D"/>
<stop offset="0.9829" stop-color="#A3CD39"/>
</linearGradient>
<linearGradient id="paint5_linear_529_226" x1="2.09924" y1="11.7577" x2="4.83829" y2="4.30183" gradientUnits="userSpaceOnUse">
<stop offset="0.0698" stop-color="#A3CD39"/>
<stop offset="0.2599" stop-color="#81C55F"/>
<stop offset="0.9216" stop-color="#0FA8E0"/>
</linearGradient>
</defs>
</svg>
