<svg width="180" height="23" viewBox="0 0 180 23" fill="none" xmlns="http://www.w3.org/2000/svg">
<g clip-path="url(#clip0_529_209)">
<path d="M35.4437 4.42664C37.9415 4.42664 39.9651 5.51008 40.8188 6.31493L39.396 8.01748C38.7004 7.39837 37.1511 6.56257 35.4437 6.56257C32.3136 6.56257 30.3533 8.66755 30.3533 11.5464C30.3533 14.4253 32.2187 16.5303 35.4753 16.5303C37.3724 16.5303 39.0165 15.5397 39.7121 14.8587L41.0717 16.6231C40.218 17.4899 38.068 18.6662 35.4437 18.6662C30.8275 18.6662 27.9819 15.6326 27.9819 11.5155C27.9819 7.46028 30.9224 4.42664 35.4437 4.42664Z" fill="#213A8B"/>
<path d="M49.6716 4.42664C53.94 4.42664 57.0386 7.46028 57.0386 11.5774C57.0386 15.6945 53.94 18.7281 49.6716 18.7281C45.4032 18.7281 42.3047 15.6945 42.3047 11.5774C42.3047 7.46028 45.4032 4.42664 49.6716 4.42664ZM49.6716 16.5612C52.5488 16.5612 54.6989 14.4253 54.6989 11.5774C54.6989 8.69851 52.5805 6.59353 49.6716 6.59353C46.7944 6.59353 44.6444 8.72946 44.6444 11.5774C44.6444 14.4253 46.7944 16.5612 49.6716 16.5612Z" fill="#213A8B"/>
<path d="M71.7091 14.4253C71.7091 16.4374 70.3812 18.3876 66.998 18.3876H59.5679V4.73621H66.5554C69.401 4.73621 71.0135 6.43876 71.0135 8.38897C71.0135 9.47241 70.5076 10.463 69.2745 11.2678C70.5076 11.6703 71.7091 12.568 71.7091 14.4253ZM61.8444 6.87214V10.5249L66.2708 10.4939C67.8517 10.4939 68.6738 9.62719 68.6738 8.60565C68.6738 7.67699 67.9782 6.87214 66.587 6.87214H61.8444ZM67.1245 16.2517C68.737 16.2517 69.3694 15.3849 69.3694 14.4253C69.3694 13.4038 68.6422 12.537 67.1878 12.537H61.876V16.2517H67.1245Z" fill="#213A8B"/>
<path d="M80.8782 11.3607L87.0436 18.3876H84.0083L78.8546 12.4132H76.1987V18.3876H73.8906V4.73621H76.1987V10.3701H78.8546L83.8818 4.73621H86.9488L80.8782 11.3607Z" fill="#213A8B"/>
<path d="M94.1262 4.42664C98.3946 4.42664 101.493 7.46028 101.493 11.5774C101.493 15.6945 98.3946 18.7281 94.1262 18.7281C89.8578 18.7281 86.7593 15.6945 86.7593 11.5774C86.7593 7.46028 89.8578 4.42664 94.1262 4.42664ZM94.1262 16.5612C97.0034 16.5612 99.1535 14.4253 99.1535 11.5774C99.1535 8.69851 97.0351 6.59353 94.1262 6.59353C91.249 6.59353 89.099 8.72946 89.099 11.5774C89.099 14.4253 91.249 16.5612 94.1262 16.5612Z" fill="#213A8B"/>
<path d="M116.954 4.73621H119.167V18.3876H116.859V8.23419L112.275 14.2396H110.883L106.299 8.23419V18.3876H103.991V4.73621H106.204L111.579 11.7322L116.954 4.73621Z" fill="#213A8B"/>
<path d="M129.665 10.3082C132.731 10.3082 134.407 12.0727 134.407 14.3324C134.407 16.5922 132.731 18.3876 129.823 18.3876H122.234V4.73621H133.111V6.87214H124.542V10.3082H129.665ZM129.728 16.2517C131.309 16.2517 132.036 15.3849 132.036 14.3634C132.036 13.3419 131.309 12.4751 129.728 12.4751H124.542V16.2517H129.728Z" fill="#213A8B"/>
<path d="M147.149 18.3876L145.631 14.9825H139.023L137.506 18.3876H135.008L141.078 4.73621H143.608L149.678 18.3876H147.149ZM139.94 12.9394H144.746L142.343 7.49125L139.94 12.9394Z" fill="#213A8B"/>
<path d="M161.725 4.73621H164.033V18.3876H161.725V12.537H153.663V18.3876H151.354V4.73621H153.663V10.4011H161.725V4.73621Z" fill="#213A8B"/>
<path d="M174.088 11.3607L180.285 18.3876H177.218L172.064 12.4132H169.408V18.3876H167.1V4.73621H169.408V10.3701H172.064L177.091 4.73621H180.158L174.088 11.3607Z" fill="#213A8B"/>
<path d="M0.379395 11.5774C0.379395 17.8304 5.56471 22.9071 11.9831 22.9071C12.1412 22.9071 12.2993 22.9071 12.4574 22.9071V18.6043H11.9831C7.99928 18.6043 4.80588 15.4468 4.80588 11.5774C4.80588 7.70793 8.0309 4.55046 11.9831 4.55046H12.4574V0.216675C12.2993 0.216675 12.1412 0.216675 11.9831 0.216675C5.56471 0.216675 0.379395 5.29339 0.379395 11.5774Z" fill="#DA5155"/>
<path d="M14.2912 0.43338V6.3459H11.9831C9.01098 6.3459 6.63965 8.66757 6.63965 11.5774C6.63965 14.4563 9.0426 16.8089 11.9831 16.8089H14.2912V22.7214C19.5713 21.6689 23.5552 17.0875 23.5552 11.6083C23.5552 6.0673 19.5713 1.48587 14.2912 0.43338Z" fill="#213A8B"/>
</g>
<defs>
<clipPath id="clip0_529_209">
<rect width="180" height="23" fill="white"/>
</clipPath>
</defs>
</svg>
