<svg width="148" height="27" viewBox="0 0 148 27" fill="none" xmlns="http://www.w3.org/2000/svg">
<path d="M0.299805 0.979095H25.7992V13.6208C25.7992 16.8625 24.0503 19.8512 21.2007 21.4781L13.0556 26.1178L4.91049 21.4781C2.06091 19.8633 0.312034 16.8625 0.312034 13.6208V0.979095H0.299805Z" fill="#FFDD2D"/>
<path fill-rule="evenodd" clip-rule="evenodd" d="M7.29541 7.63135V11.56C7.84576 10.9575 8.83638 10.5477 9.96153 10.5477H11.1968V15.1151C11.1968 16.3323 10.8665 17.3928 10.3651 17.9833H15.7218C15.2204 17.3928 14.8902 16.3323 14.8902 15.1151V10.5477H16.1254C17.2628 10.5477 18.2534 10.9575 18.7915 11.56V7.63135H7.29541Z" fill="#333333"/>
<path d="M141.127 7.04083V8.08928C145.163 8.17364 147.573 9.84875 147.573 12.8013C147.573 15.7538 145.163 17.2964 141.127 17.3928V18.4412H137.935V17.3928C133.924 17.3084 131.515 15.7659 131.515 12.8013C131.515 9.84875 133.924 8.17364 137.935 8.08928V7.04083H141.127ZM137.935 15.1754V10.3308C135.734 10.4152 134.756 11.4154 134.756 12.8133C134.756 14.1992 135.734 15.091 137.935 15.1754ZM141.127 10.3308V15.1754C143.353 15.091 144.307 14.1992 144.307 12.8013C144.307 11.4154 143.365 10.4152 141.127 10.3308Z" fill="#333333"/>
<path d="M124.054 7.04083V8.08928C128.09 8.17364 130.499 9.84875 130.499 12.8013C130.499 15.7538 128.09 17.2964 124.054 17.3928V18.4412H120.862V17.3928C116.851 17.3084 114.441 15.7659 114.441 12.8013C114.441 9.84875 116.851 8.17364 120.862 8.08928V7.04083H124.054ZM120.85 15.1754V10.3308C118.649 10.4152 117.67 11.4154 117.67 12.8133C117.682 14.1992 118.649 15.091 120.85 15.1754ZM124.054 10.3308V15.1754C126.28 15.091 127.234 14.1992 127.234 12.8013C127.234 11.4154 126.28 10.4152 124.054 10.3308Z" fill="#333333"/>
<path d="M106.541 7.35416C110.821 7.35416 113.402 9.74028 113.402 12.8254C113.402 15.9105 110.821 18.2966 106.541 18.2966C102.236 18.2966 99.6553 15.9105 99.6553 12.8254C99.6675 9.74028 102.248 7.35416 106.541 7.35416ZM106.541 15.7779C108.656 15.7779 110.051 14.5125 110.051 12.8254C110.051 11.1262 108.656 9.89695 106.541 9.89695C104.4 9.89695 103.031 11.1382 103.031 12.8254C103.031 14.5246 104.4 15.7779 106.541 15.7779Z" fill="#333333"/>
<path d="M91.8895 14.0667H91.0089V17.9833H87.8169V7.6434H91.0089V11.5359H91.8895L95.7541 7.6434H99.7655L94.6534 12.5844L99.9734 17.9712H95.7174L91.8895 14.0667Z" fill="#333333"/>
<path d="M81.4208 17.9833H74.939V7.6434H78.1432V10.4152H81.4331C82.228 10.4152 83.0596 10.4393 83.769 10.6923C85.2488 11.2346 86.1783 12.4277 86.1783 14.151C86.1783 15.9587 85.102 17.2843 83.4388 17.7423C82.8028 17.911 82.1424 17.9833 81.4208 17.9833ZM80.8582 12.8495H78.1187V15.4767H80.8582C81.4086 15.4767 81.7633 15.4767 82.1179 15.32C82.6193 15.1031 82.9373 14.6451 82.9373 14.1028C82.9373 13.5846 82.6316 13.1508 82.0935 12.97C81.7266 12.8495 81.2985 12.8495 80.8582 12.8495Z" fill="#333333"/>
<path d="M69.313 14.1269H64.1764V17.9712H60.9844V7.63135H64.1764V11.4154H69.313V7.63135H72.505V17.9712H69.313V14.1269Z" fill="#333333"/>
<path d="M50.2101 13.6569L55.7258 7.63135H58.5509V17.9712H55.3589V11.9457L49.8432 17.9712H47.0181V7.63135H50.2101V13.6569Z" fill="#333333"/>
<path d="M41.1475 17.9833H37.8332V10.4031H33.2837V7.6434H45.6848V10.4031H41.1475V17.9833Z" fill="#333333"/>
</svg>
