<svg width="92" height="33" viewBox="0 0 92 33" fill="none" xmlns="http://www.w3.org/2000/svg">
<g clip-path="url(#clip0_529_197)">
<path fill-rule="evenodd" clip-rule="evenodd" d="M6.25065 0L4.68701 4.28311H26.3556L27.9192 0H6.25065ZM3.90471 6.42369L2.34107 10.7058H24.0096L25.5732 6.42369H3.90471ZM1.56364 12.8474L0 17.1295H21.6685L23.2312 12.8474H1.56364Z" fill="#009FDF"/>
<mask id="mask0_529_197" style="mask-type:luminance" maskUnits="userSpaceOnUse" x="32" y="6" width="60" height="27">
<path d="M32.5098 32.7428H91.8249V6.50604H32.5098V32.7428Z" fill="white"/>
</mask>
<g mask="url(#mask0_529_197)">
<path fill-rule="evenodd" clip-rule="evenodd" d="M46.066 18.7617V18.8521C47.0563 19.2156 48.0022 19.8511 48.4978 20.2593C50.029 21.5304 50.7049 23.2097 50.7049 25.3886C50.7049 28.9756 48.8131 31.5626 45.7054 32.3799C44.7594 32.652 43.7692 32.7434 41.9217 32.7434H32.5098V6.50604H40.8418C42.5533 6.50604 43.7239 6.59641 44.7594 6.86852C47.7775 7.68583 49.759 9.77429 49.759 13.0872C49.759 14.8579 49.1284 16.3565 48.0928 17.3545C47.6425 17.8084 47.0119 18.3536 46.066 18.7617ZM37.734 21.5304V28.4304H41.3374C42.4173 28.4304 43.4085 28.34 44.1298 27.6588C44.8501 26.9775 45.1654 26.1155 45.1654 24.9804C45.1654 24.1184 44.9398 23.3011 44.4895 22.7112C43.7239 21.7579 42.7779 21.5304 41.1571 21.5304H37.734ZM37.6887 16.991H40.6161C41.5167 16.991 41.967 16.991 42.4173 16.855C43.6342 16.4915 44.3998 15.4031 44.3998 13.9045C44.3998 12.1349 43.5889 11.3622 42.4173 10.9998C41.9217 10.8637 41.427 10.818 40.4358 10.818H37.6887V16.991ZM58.5413 32.7434V10.9084H51.0203V6.50604H71.9182L70.4323 10.9084H63.7655V32.7434H58.5413ZM73.5391 32.7434V6.50604H90.474L88.9881 10.9084H78.719V16.7189H82.9076C86.2854 16.7189 88.0422 17.5362 89.2581 18.58C90.204 19.3973 91.8249 21.2127 91.8249 24.7997C91.8249 28.34 90.1587 30.2914 88.7625 31.2905C87.1416 32.4246 85.4301 32.7434 81.9617 32.7434H73.5391ZM78.719 28.34H82.6376C84.1235 28.34 85.0241 27.9766 85.6547 27.1593C85.9701 26.7511 86.4203 26.0242 86.4203 24.6626C86.4203 23.3011 85.9701 22.3478 85.0695 21.6665C84.5295 21.2583 83.8082 21.0319 82.5923 21.0319H78.719V28.34Z" fill="#0A2973"/>
</g>
</g>
<defs>
<clipPath id="clip0_529_197">
<rect width="92" height="33" fill="white"/>
</clipPath>
</defs>
</svg>
