<svg width="110" height="109" viewBox="0 0 110 109" fill="none" xmlns="http://www.w3.org/2000/svg">
<path d="M17.1499 82.85C17.1499 86.65 17.8999 89.3501 19.3999 90.9501C20.9999 92.4501 23.0999 93.2001 25.6999 93.2001C28.2999 93.2001 30.3499 92.4501 31.8499 90.9501C33.4499 89.3501 34.2499 86.65 34.2499 82.85V26.15C34.2499 22.35 33.4499 19.7 31.8499 18.2C30.3499 16.6 28.2999 15.8 25.6999 15.8C23.0999 15.8 20.9999 16.6 19.3999 18.2C17.8999 19.7 17.1499 22.35 17.1499 26.15V82.85ZM0.649902 27.2C0.649902 18.7 2.7999 12.2 7.0999 7.70004C11.3999 3.10005 17.5999 0.800049 25.6999 0.800049C33.7999 0.800049 39.9999 3.10005 44.2999 7.70004C48.5999 12.2 50.7499 18.7 50.7499 27.2V81.8C50.7499 90.3 48.5999 96.8501 44.2999 101.45C39.9999 105.95 33.7999 108.2 25.6999 108.2C17.5999 108.2 11.3999 105.95 7.0999 101.45C2.7999 96.8501 0.649902 90.3 0.649902 81.8V27.2Z" fill="#4169E1" fill-opacity="0.1"/>
<path d="M93.2726 27.8001C93.2726 23.1 92.4726 19.95 90.8726 18.35C89.3726 16.65 87.3226 15.8 84.7226 15.8C82.1226 15.8 80.0226 16.6 78.4226 18.2C76.9226 19.7 76.1726 22.35 76.1726 26.15V32.9H60.5726V27.2C60.5726 18.7 62.6226 12.2 66.7226 7.70004C70.9226 3.10005 77.0726 0.800049 85.1726 0.800049C93.2726 0.800049 99.3726 3.10005 103.473 7.70004C107.673 12.2 109.773 18.7 109.773 27.2V29.9C109.773 41.1 105.923 48.3 98.2226 51.5C102.423 53.3 105.373 56.1 107.073 59.9C108.873 63.6 109.773 68.15 109.773 73.55V81.8C109.773 90.3 107.673 96.8501 103.473 101.45C99.3726 105.95 93.2726 108.2 85.1726 108.2C77.0726 108.2 70.9226 105.95 66.7226 101.45C62.6226 96.8501 60.5726 90.3 60.5726 81.8V73.1H76.1726V82.85C76.1726 86.65 76.9226 89.3501 78.4226 90.9501C80.0226 92.4501 82.1226 93.2001 84.7226 93.2001C87.3226 93.2001 89.3726 92.4 90.8726 90.8C92.4726 89.2001 93.2726 86.05 93.2726 81.3501V73.1C93.2726 68.2 92.4226 64.75 90.7226 62.75C89.0226 60.75 86.2726 59.75 82.4726 59.75H76.9226V44.75H83.3726C86.4726 44.75 88.8726 43.95 90.5726 42.35C92.3726 40.75 93.2726 37.85 93.2726 33.65V27.8001Z" fill="#4169E1" fill-opacity="0.1"/>
</svg>
