<svg width="114" height="109" viewBox="0 0 114 109" fill="none" xmlns="http://www.w3.org/2000/svg">
<path d="M17.1499 82.85C17.1499 86.65 17.8999 89.3501 19.3999 90.9501C20.9999 92.4501 23.0999 93.2001 25.6999 93.2001C28.2999 93.2001 30.3499 92.4501 31.8499 90.9501C33.4499 89.3501 34.2499 86.65 34.2499 82.85V26.15C34.2499 22.35 33.4499 19.7 31.8499 18.2C30.3499 16.6 28.2999 15.8 25.6999 15.8C23.0999 15.8 20.9999 16.6 19.3999 18.2C17.8999 19.7 17.1499 22.35 17.1499 26.15V82.85ZM0.649902 27.2C0.649902 18.7 2.7999 12.2 7.0999 7.70004C11.3999 3.10005 17.5999 0.800049 25.6999 0.800049C33.7999 0.800049 39.9999 3.10005 44.2999 7.70004C48.5999 12.2 50.7499 18.7 50.7499 27.2V81.8C50.7499 90.3 48.5999 96.8501 44.2999 101.45C39.9999 105.95 33.7999 108.2 25.6999 108.2C17.5999 108.2 11.3999 105.95 7.0999 101.45C2.7999 96.8501 0.649902 90.3 0.649902 81.8V27.2Z" fill="#4169E1" fill-opacity="0.1"/>
<path d="M57.5726 72.9501L87.5726 2.00004H105.573V72.9501H113.373V87.9501H105.573V107H89.3726V87.9501H57.5726V72.9501ZM89.3726 72.9501V33.5L72.7226 72.9501H89.3726Z" fill="#4169E1" fill-opacity="0.1"/>
</svg>
