<svg width="20" height="20" viewBox="0 0 20 20" fill="none" xmlns="http://www.w3.org/2000/svg">
<g clip-path="url(#clip0_529_60)">
<path fill-rule="evenodd" clip-rule="evenodd" d="M10.8176 1.87501C10.3861 1.87501 10.0363 1.52524 10.0363 1.09376C10.0363 0.662272 10.3861 0.312506 10.8176 0.312506C13.0875 0.312506 15.3575 1.17852 17.0895 2.91051C17.9356 3.75665 18.5764 4.737 19.0115 5.78723C19.4575 6.86362 19.6872 8.0173 19.6875 9.18243C19.6875 9.61391 19.3377 9.96368 18.9062 9.96368C18.4748 9.96368 18.125 9.61391 18.125 9.18243C18.125 8.22485 17.9403 7.27083 17.5711 6.3793C17.2167 5.52376 16.6881 4.71852 15.9848 4.01528C14.558 2.58844 12.6878 1.87501 10.8176 1.87501ZM8.2746 11.7254C7.41425 10.8666 6.65171 9.91598 6.00351 8.89106C5.76683 8.51672 5.76933 8.067 6.00999 7.69536L6.93495 6.26723C7.1323 5.96239 7.16995 5.61458 7.04238 5.27465L5.45132 1.03407C5.20214 0.369967 4.41359 0.107194 3.81581 0.489108L1.59609 1.90735C0.583079 2.55462 0.112767 3.71813 0.391829 4.88747C1.2507 8.48653 3.12398 11.7254 5.71308 14.2869C8.2746 16.8761 11.5135 18.7493 15.1126 19.6082C16.2819 19.8872 17.4454 19.4169 18.0927 18.4039L19.5109 16.1842C19.8928 15.5864 19.63 14.7978 18.9659 14.5487L14.7254 12.9576C14.3854 12.83 14.0376 12.8677 13.7328 13.065L12.3047 13.99C11.933 14.2307 11.4833 14.2332 11.109 13.9965C10.084 13.3483 9.13339 12.5857 8.2746 11.7254ZM10.8176 8.20528C10.9497 8.20528 11.0784 8.2295 11.1953 8.27794C11.3051 8.3234 11.4116 8.39446 11.5086 8.49141C11.6056 8.58837 11.6766 8.69493 11.7221 8.80473C11.7705 8.92165 11.7948 9.05028 11.7948 9.18243C11.7948 9.61391 12.1445 9.96368 12.576 9.96368C13.0075 9.96368 13.3573 9.61391 13.3573 9.18243C13.3573 8.85606 13.2923 8.5261 13.1625 8.21266C13.0364 7.90817 12.8532 7.62649 12.6134 7.38665C12.3735 7.1468 12.0919 6.9636 11.7873 6.83747C11.4739 6.70766 11.1439 6.64274 10.8176 6.64274C10.3861 6.64274 10.0363 6.99251 10.0363 7.42399C10.0363 7.85548 10.3861 8.20528 10.8176 8.20528ZM10.8176 5.03712C11.3576 5.03712 11.8989 5.14255 12.408 5.35344C12.8907 5.55337 13.3466 5.85321 13.7467 6.25337C14.1468 6.65348 14.4467 7.10938 14.6466 7.59204C14.8554 8.09626 14.9629 8.63667 14.9629 9.18243C14.9629 9.61219 15.3113 9.96063 15.7411 9.96063C16.1709 9.96063 16.5193 9.61223 16.5193 9.18243C16.5193 8.43852 16.3752 7.69579 16.087 7.00001C15.8064 6.32262 15.3944 5.69161 14.8514 5.14864C14.3085 4.60563 13.6775 4.1936 13.0001 3.91305C12.3043 3.62485 11.5615 3.48075 10.8176 3.48075C10.3878 3.48075 10.0394 3.82919 10.0394 4.25895C10.0394 4.68872 10.3878 5.03712 10.8176 5.03712Z" fill="#4169E1"/>
</g>
<defs>
<clipPath id="clip0_529_60">
<rect width="20" height="20" fill="white"/>
</clipPath>
</defs>
</svg>
